# xmcd CD database file
#
# Track frame offsets:
#	150
#	14655
#	27221
#	43339
#	57080
#	71695
#	83230
#	96858
#	100206
#	115146
#	130656
#	148159
#	164610
#
# Disc length: 2260 seconds
#
# Revision: 0
# Processed by: cddbd v1.5.2PL0 Copyright (c) Steve Scherf et al.
# Submitted via: CDex 1.51
#
DISCID=b708d20d
DTITLE=Benny Goodman  - Let's Dance With
DYEAR=1900
DGENRE=Jazz
TTITLE0=Benny Goodman - And The Angels Sing
TTITLE1=Benny Goodman - Bugle Call Rag
TTITLE2=Benny Goodman - China Boy
TTITLE3=Benny Goodman - Don't Be That Way
TTITLE4=Benny Goodman - Goodbye
TTITLE5=Benny Goodman - Goody Goody
TTITLE6=Benny Goodman - King Porter Stomp
TTITLE7=Benny Goodman - Let's Dance
TTITLE8=Benny Goodman - Memories Of You
TTITLE9=Benny Goodman - Moonglow
TTITLE10=Benny Goodman - One O'clock Jump
TTITLE11=Benny Goodman - Seven Come Eleven
TTITLE12=Benny Goodman - Shine
EXTD=
EXTT0=
EXTT1=
EXTT2=
EXTT3=
EXTT4=
EXTT5=
EXTT6=
EXTT7=
EXTT8=
EXTT9=
EXTT10=
EXTT11=
EXTT12=
PLAYORDER=
